/* XPM */
static char *_43aed365116467c90120946ada3c67f0uVziL53LGWgR5b1[] = {
/* columns rows colors chars-per-pixel */
"31 32 204 2 ",
"   c None",
".  c #765C01",
"X  c #775C01",
"o  c #775D01",
"O  c #795E01",
"+  c #7A5F01",
"@  c #7B5F01",
"#  c #7B6001",
"$  c #7C6001",
"%  c #7C6101",
"&  c #7F6301",
"*  c #816401",
"=  c #826501",
"-  c #836501",
";  c #836601",
":  c #846601",
">  c #846701",
",  c #866801",
"<  c #876901",
"1  c #886A01",
"2  c #896A01",
"3  c #896B01",
"4  c #8A6B01",
"5  c #8A6C01",
"6  c #8B6C01",
"7  c #8C6C01",
"8  c #8C6D01",
"9  c #8D6D01",
"0  c #8D6E01",
"q  c #8E6E01",
"w  c #8F6F01",
"e  c #906F01",
"r  c #907001",
"t  c #917101",
"y  c #927101",
"u  c #927201",
"i  c #937201",
"p  c #937301",
"a  c #947201",
"s  c #947301",
"d  c #947401",
"f  c #957401",
"g  c #967401",
"h  c #967501",
"j  c #977501",
"k  c #977601",
"l  c #987601",
"z  c #997601",
"x  c #997701",
"c  c #9A7701",
"v  c #9A7801",
"b  c #9B7801",
"n  c #9B7901",
"m  c #9C7901",
"M  c #9D7901",
"N  c #9D7A01",
"B  c #9E7A01",
"V  c #9E7B01",
"C  c #9F7B01",
"Z  c #9F7C01",
"A  c #A07C01",
"S  c #A17D01",
"D  c #A27D01",
"F  c #A17E01",
"G  c #A27E01",
"H  c #A37E01",
"J  c #A37F01",
"K  c #A47F01",
"L  c #A48001",
"P  c #A58001",
"I  c #A68101",
"U  c #A78101",
"Y  c #A78201",
"T  c #A88201",
"R  c #A88301",
"E  c #A98301",
"W  c #A98401",
"Q  c #AA8401",
"!  c #AB8401",
"~  c #AB8501",
"^  c #AB8701",
"/  c #AC8501",
"(  c #AC8601",
")  c #AD8601",
"_  c #AD8701",
"`  c #AE8701",
"'  c #AC8801",
"]  c #AC8901",
"[  c #AD8901",
"{  c #AE8801",
"}  c #B08801",
"|  c #B08901",
" . c #B18901",
".. c #B18A01",
"X. c #B28B01",
"o. c #B38B01",
"O. c #B48B01",
"+. c #B38C01",
"@. c #B38D01",
"#. c #B48C01",
"$. c #B48D01",
"%. c #B58D01",
"&. c #B68D01",
"*. c #B58F01",
"=. c #B68E01",
"-. c #B78F01",
";. c #B88F01",
":. c #B89001",
">. c #B99001",
",. c #BA9101",
"<. c #BB9201",
"1. c #BC9201",
"2. c #BC9301",
"3. c #BD9301",
"4. c #BC9501",
"5. c #BE9401",
"6. c #BF9401",
"7. c #BE9501",
"8. c #BF9501",
"9. c #BC9701",
"0. c #BF9601",
"q. c #C09501",
"w. c #C09601",
"e. c #C19601",
"r. c #C29601",
"t. c #C29701",
"y. c #C19801",
"u. c #C49801",
"i. c #C49901",
"p. c #C59901",
"a. c #C59A01",
"s. c #C69A01",
"d. c #C79B01",
"f. c #C49C01",
"g. c #C59C01",
"h. c #C89B01",
"j. c #CB9E01",
"k. c #CC9E01",
"l. c #CD9F01",
"z. c #CEA001",
"x. c #CFA001",
"c. c #CFA101",
"v. c #D0A101",
"b. c #D0A201",
"n. c #D1A201",
"m. c #D5A501",
"M. c #D6A601",
"N. c #D7A701",
"B. c #D8A701",
"V. c #D8A801",
"C. c #D9A801",
"Z. c #DAA901",
"A. c #DCAB01",
"S. c #DEAC01",
"D. c #D9B10C",
"F. c #DEB30C",
"G. c #E0AE01",
"H. c #E0AF01",
"J. c #E1AF01",
"K. c #E2AF01",
"L. c #E3B001",
"P. c #E3B101",
"I. c #E4B401",
"U. c #E8B601",
"Y. c #EBB601",
"T. c #EBB701",
"R. c #EBB901",
"E. c #ECB801",
"W. c #EDB801",
"Q. c #EDB901",
"!. c #E0B40C",
"~. c #E9BB0C",
"^. c #ECBD0C",
"/. c #F6BF01",
"(. c #F7C001",
"). c #F7C101",
"_. c #F8C101",
"`. c #F9C201",
"'. c #F7C50C",
"]. c #FCC608",
"[. c #FAC60C",
"{. c #FFC90C",
"}. c #FEC80D",
"|. c #FFC90D",
" X c #FFCA0C",
".X c #FFCA0D",
"XX c #FEC90E",
"oX c #FFC90E",
"OX c #FECE27",
"+X c #FECF29",
"@X c #FFD02D",
"#X c #FFD12D",
"$X c #FFD22C",
"%X c #FFD02E",
"&X c #FED648",
"*X c #FFD74C",
"=X c #FFD84F",
"-X c #FFD852",
";X c #FFD853",
":X c #FEDC67",
">X c #FEDD68",
",X c #FEDD69",
"<X c #FEDD6B",
"1X c #FEDE6E",
/* pixels */
"                                                              ",
"                      <X<X<X<X<X<X<X                          ",
"                  *X=X-X-X-X-X-X;X;X=X*X&X                    ",
"              OX%X+X$X$X$X$X$X$X$X%X+X$X+X$X                  ",
"            XXXXXXXXXX[.^.F.D.F.~.'.XXXXXXXXXX].              ",
"        /.(.(._._.R.g.{ #.6.e.e.*.( 9.I._._.(.(./.            ",
"        Q.Q.Q.Q.g.` d.J.R.Q.Q.W.T.P.j.[ 6.U.Q.Q.Q.U.          ",
"      P.P.P.J.+.X.C.J.P.C.J.L.J.K.K.P.S.>.{ A.P.L.L.J.        ",
"    C.C.C.C.X.#.N.B.B.C.>.Y v.B.C.B.B.N.N.6.T m.C.C.B.        ",
"    v.v.v.#.` l.l.v.c.v.c.i.O.v.c.v.l.c.l.c.O.X.v.v.v.l.      ",
"  d.d.d.e.G 6.d.d.i.d.d.d.>.C >.d.d.d.e.#.d.e.Y 6.h.g.d.      ",
"  6.e.e.` ~ 6.e.>.6.6.6.6.G ` K 6.6.e.` X.6.6.X.Y 6.e.e.      ",
";.;.>.;.Z X.;.;.{ u K >.~ G X.G Y ` T Y #.;.;.#.Z #.>.#.;.    ",
"#.X.X.{ C ` K ` +.Y 6 3 u ~ Y - # % 6 ~ X.X.X.X.G ~ #.X.X.    ",
"` ` ` T G T s s ` ` T C G T ~ T Y Y ` ` ` T T ` G K ` ` `     ",
"T T Y G C Y Y Y Y T T T Y Y T Y Y u C T T Y Y K G G T T T     ",
"K Y G G C G Z Y K Y 3 * G G K G G x 9 K L L b G Z Z G K Y     ",
"G G G C b C u Z G x - 3 x G G G C C 7 j L x u Z b Z G G G     ",
"G C C C b C u u A 3 s C G G Z Z b b x - # - w b b Z Z C C     ",
"  C C C b x j < e 3 C C C C j b C C A x d < j b C b C C       ",
"  C x x b b b w % e C x b x 9 b b b b b w 6 x b C x C x       ",
"  x x x b b j j - - x b b x < 9 b b b j - u j C x x x x       ",
"    x x j b C j d - . # % % : % 9 # . . 6 j C b j j x         ",
"    j j j j x C j u < O . O 9 < # . # 6 j b b j j j j         ",
"      j j j j j C x j u j u u u < w u j C x j j j s           ",
"        u j d j j C C b j j j s j b Z C j j s j s             ",
"          j u j s s j b C Z G G Z b j j d u s s               ",
"            u u s s s s u u u s d u s s u j u                 ",
"                u s u u u s u s u s u s u                     ",
"                      s s u s u u u s                         ",
"                                                              ",
"                                                              "
};
