/* XPM */
static char *b54514a1eb454e6984b5aaeeb2cdad4834Tv17PmXtLGdheq[] = {
/* columns rows colors chars-per-pixel */
"64 65 122 2 ",
"   c None",
".  c #443501",
"X  c #4C3B01",
"o  c #554201",
"O  c #5F4A01",
"+  c #634E01",
"@  c #675001",
"#  c #6C5401",
"$  c #705701",
"%  c #745B01",
"&  c #795E01",
"*  c #7D6101",
"=  c #826501",
"-  c #866901",
";  c #8B6C01",
":  c #906F01",
">  c #8D7101",
",  c #947301",
"<  c #997701",
"1  c #957A01",
"2  c #9C7901",
"3  c #A27E01",
"4  c #A68101",
"5  c #AA8401",
"6  c #AE8801",
"7  c #B38C01",
"8  c #B88F01",
"9  c #BC9201",
"0  c #C29701",
"q  c #C59901",
"w  c #CA9D01",
"e  c #C2A101",
"r  c #CEA001",
"t  c #CFAA01",
"y  c #D4A501",
"u  c #D8A701",
"i  c #D6AC01",
"p  c #DCAA01",
"a  c #D7B506",
"s  c #D9B001",
"d  c #DDB805",
"f  c #E1AE01",
"g  c #E5B201",
"h  c #EAB601",
"j  c #E4BA04",
"k  c #EDB901",
"l  c #F3BD01",
"z  c #EEC004",
"x  c #F6C202",
"c  c #FDC501",
"v  c #FCC401",
"b  c #FBC505",
"n  c #FCC605",
"m  c #FEC706",
"M  c #FFC706",
"N  c #FFC707",
"B  c #FBC301",
"V  c #FFC901",
"C  c #F8C806",
"Z  c #FFC806",
"A  c #FEC807",
"S  c #FFC807",
"D  c #FFCA06",
"F  c #FFCB06",
"G  c #FDCD06",
"H  c #FFCD06",
"J  c #FFCE06",
"K  c #FCCA14",
"L  c #FFCA15",
"P  c #FFCB15",
"I  c #FECB16",
"U  c #FFCB16",
"Y  c #FFCB17",
"T  c #FFCC15",
"R  c #FFCD15",
"E  c #FFCC18",
"W  c #FDCE25",
"Q  c #FDCE26",
"!  c #FFCE26",
"~  c #FFCE27",
"^  c #FFCE28",
"/  c #FFCF28",
"(  c #FECF29",
")  c #FFCF29",
"_  c #FDD135",
"`  c #FED237",
"'  c #FFD237",
"]  c #FFD238",
"[  c #FFD339",
"{  c #FFD33A",
"}  c #FDD647",
"|  c #FFD64A",
" . c #FED74A",
".. c #FFD74A",
"X. c #FFD74B",
"o. c #FFD74C",
"O. c #FFD74D",
"+. c #FFD84D",
"@. c #FFD84E",
"#. c #FCD751",
"$. c #FDD852",
"%. c #FED852",
"&. c #FED853",
"*. c #FED957",
"=. c #FED958",
"-. c #FFDA5B",
";. c #FFDA5C",
":. c #FFDA5D",
">. c #FFDB5D",
",. c #FFDB5E",
"<. c #FDDB63",
"1. c #FEDD6B",
"2. c #FDDE6C",
"3. c #FEDE6C",
"4. c #FFDE6D",
"5. c #FEDF6F",
"6. c #FFDF6F",
"7. c #FFDF70",
"8. c #FEDF71",
"9. c #FFDF71",
"0. c #FEDF72",
"q. c #FEE073",
/* pixels */
"                                                                                                                                ",
"                                                                                                                                ",
"                                                          9.q.1.                                                                ",
"                                              5.9.5.1.5.5.9.5.9.5.1.5.5.9.<.                                                    ",
"                                    #.*.&.*.>.-.-.>.>.>.-.-.>.-.-.>.>.-.>.>.-.&.&.&.                                            ",
"                                  } +.O.+.| | | | | | | | | | | | | | | | |  .| O.+.|                                           ",
"                                ` ] ] ] ` ` ` ` ` ` ` ] ` ] ] ] ` ` ` ` ` ` ` ` ] ] ] `                                         ",
"                          W ) ) ) W ) W ) W W W W W W W W W W W W W W ) W ) W W W W ) ) ) ) W                                   ",
"                        L Y L Y L Y Y L Y Y Y R R R Y Y R Y Y Y L E L Y R P P Y R L L Y L Y E L                                 ",
"                      m A A m A A A A m c Z G G G J C z d a a g k C G G H A c A m m m A m A A A m                               ",
"                  x B c c c B B B B B x c G x t 4 > % % * % & & * % - 4 e z Z c B c B B c B c x B B x                           ",
"                l x l l l l x l l x x C h 6 % $ > 9 y g k k k k g i 9 1 % $ 1 s B x l l l x l x x l x l                         ",
"                k l k l l l k l k x h 4 % - 0 h k k k k k k k k h k k l h r < $ 1 i x k k k l k l k l k                         ",
"              k k h k h k k h h k q % > y h h g h h h h g h h h h h h g h h k p 3 # 6 h k h h h k k h k h                       ",
"            g g g g g h g g g h 2 % 8 g f g g g g g g g g g g f g g g g g g g f g w = ; s h g g g h g g g g                     ",
"          f g f f f g f f g p - - u p f p p f f f s g g f f f f s f p g p f p f p f u 3 & r g g f f f f g p g                   ",
"          p p p p p p p p p ; , y u u p p p p p f 8 , 8 f p p p p p p p p p p p u p u u 5 & w f f p p p p p p                   ",
"          u u u u u u u u ; , y y y y u y u u u u w 2 % ; y u u u u u u u u y u u u y u u 6 & w u u u u u u u u                 ",
"        y u u u y y y u 2 ; w w y y y y y y y y y y u y < 3 u y r u y r r y r y r y y r r r 3 ; y y y y y y y y                 ",
"      w w r r r y w y 8 - 0 w w w r w w w r w w r r w r w < 0 r r r r r r r r r r r w r w w w , 3 y r r w y w y w               ",
"    w w w w w w w w w = 5 q q w w w w w w w w w w w w w w 7 < w w w w w w w w w w q 6 q w q q 8 = 8 w w w w w w w w             ",
"    q q q q q w q w < : 0 q q q q q 0 0 q w q q q q q w 3 = < 6 q q q q q q q q w 4 7 q 0 q q 0 3 ; w q q q q q q w             ",
"    q q q q q 0 q 0 ; 7 0 0 0 0 0 0 0 0 q 0 0 0 0 0 q 0 ; 5 5 : 0 q q 0 0 0 0 q 7 3 8 0 0 0 0 0 8 ; 7 q q q 0 0 0 0             ",
"    9 0 9 9 0 9 0 3 , 8 9 8 0 0 9 9 0 0 9 9 0 9 0 8 0 < < 8 8 3 < 0 8 0 8 0 0 0 < 5 0 8 0 9 9 9 9 3 , 0 0 9 9 0 0 9             ",
"    9 9 9 9 9 9 9 ; 4 8 8 8 8 8 8 8 2 5 9 8 9 8 9 9 7 ; 6 8 7 5 ; 5 8 8 0 8 0 4 < 8 8 8 8 8 8 8 8 6 ; 7 9 8 9 9 9 9 8           ",
"  8 8 8 8 8 8 8 5 ; 7 8 7 8 8 8 8 7 , # = 6 9 8 8 8 : < 7 7 8 8 7 8 8 0 0 8 8 < 3 7 8 8 8 8 8 8 8 7 , 3 9 8 8 8 8 8 8           ",
"  7 7 8 7 7 7 8 2 , 5 7 8 8 7 7 7 7 6 3 & + ; 8 8 3 ; 4 7 7 3 & & % % % % & & < 5 8 8 7 8 7 7 7 7 6 3 , 8 7 7 8 8 7 7 8         ",
"  7 6 7 7 7 7 7 , 3 5 7 6 3 8 8 7 7 7 7 6 < # # : ; < 6 5 6 < % # @ # # # # ; 5 7 7 7 7 6 7 6 7 7 5 4 ; 5 7 7 7 7 7 6           ",
"  7 7 5 7 7 7 6 , 3 6 6 4 % % 3 6 6 6 6 7 5 4 ; # ; 5 5 6 5 5 6 5 5 5 5 3 6 7 7 6 6 6 6 5 6 6 6 5 7 4 , 5 7 6 6 7 7 7           ",
"  5 5 7 5 5 7 5 , 3 5 5 4 3 & ; 7 5 6 6 6 5 4 4 4 3 4 5 5 5 5 5 5 3 5 3 6 6 5 5 5 6 5 6 5 5 5 6 5 5 4 , 3 6 5 6 5 5 5           ",
"5 5 5 5 5 5 5 4 , 3 4 4 4 4 3 5 4 5 5 5 5 5 5 4 4 5 5 5 5 5 5 5 5 3 3 3 ; 5 5 5 6 5 5 5 5 4 4 4 5 4 4 < 3 5 5 5 4 5 5 5         ",
"5 4 4 4 4 4 5 4 , 3 4 4 4 3 3 5 4 4 5 4 4 5 4 4 4 4 3 5 3 5 3 3 3 5 3 3 = < 5 3 3 5 4 5 5 4 4 4 4 4 4 < 3 5 4 5 4 4 4 4         ",
"5 3 3 5 5 5 3 3 , 3 3 3 3 3 4 4 5 3 3 5 3 3 3 3 4 4 5 3 3 5 3 3 5 3 3 3 < & 3 3 5 5 3 3 5 3 < 3 3 4 3 < 3 3 3 5 3 5 5 3         ",
"5 3 5 3 3 3 3 3 , 3 3 3 3 3 4 3 3 5 3 3 5 3 X % 3 3 3 3 4 3 4 3 3 3 3 3 3 = : 3 3 3 3 5 3 3 , 3 3 4 3 < 3 3 3 3 3 3 3 4         ",
"  3 3 5 3 3 3 3 < < 3 3 2 < 3 3 3 4 3 3 3 & $ @ + < 3 3 3 3 3 3 3 3 3 3 3 : & 3 3 3 3 3 5 < : 3 3 3 3 < 3 3 3 3 3 5 3           ",
"  3 3 3 3 3 3 3 < < 3 3 < ; 3 3 3 3 3 3 : % : < : < 3 3 3 3 3 3 3 3 3 3 3 < = = 3 3 3 3 3 ; , 3 3 3 < < 3 3 3 3 3 3 3           ",
"  3 3 3 3 3 3 3 < < < 3 2 ; ; 3 3 3 3 3 % - < < 3 < 3 3 2 3 3 3 3 3 < < < < , & 3 3 3 3 & = < < 3 < < < 3 3 3 3 3 3 3           ",
"  3 3 3 < 3 3 3 3 < < < 2 , & < 3 3 3 = & < < 3 3 3 < 3 3 3 < 3 < 3 , : 3 < < - # # # + = = : 3 < 3 < < 3 3 3 3 2 3 2 3         ",
"  3 < 3 3 3 3 3 3 < 3 < 2 < - * 3 3 : $ < 3 3 3 3 3 3 3 4 3 3 2 3 3 < 3 3 3 3 3 & $ & < : & , < < < < 3 < 3 < 3 2 2 3           ",
"    < < < 3 < < 3 < < < < < , & ; 3 & = < 3 3 3 3 3 3 3 < : < 2 3 < < 3 3 3 < 3 3 3 3 < % : < 3 3 < < 3 3 < 3 < 2 2 3           ",
"    2 2 2 < 2 2 2 2 < < < < < ; & < % : 3 3 < 3 2 2 2 2 < ; , 2 < 3 < < 3 < 3 3 < < 3 = = : < < < < 3 2 2 2 2 2 2 2             ",
"    2 2 2 2 2 2 2 2 3 < < < < , & ; & : < < < < < 2 < 2 < ; , < < < < 3 < < < < < 3 : $ : < < < < 2 < 2 < < 2 2 2 <             ",
"    2 < < 2 < 2 2 < 3 < < < < , ; % & : < < < 3 2 < 2 2 < - ; < < 3 < < 3 < < < 3 < & = , < , < 2 3 2 < 2 < 2 < < <             ",
"    2 < < < < < < < < 3 < < < < : = # = 3 < < < < < < < < - % ; < < < < < < < < < - % : , < < < 3 < < 2 < < < < < <             ",
"      < < < < < < < < < 3 < < , , : = $ = < < < < < < < < - = $ , < < < < < < 3 , % - < < , , 3 3 < < < < < < < <               ",
"        < < < < < < < < 2 2 < < , , : ; @ # : < < < < < , = ; % & 3 < < , : : - @ & : , , < 3 3 < < < < < < < ,                 ",
"          < < < < < < < < 3 2 < < , , : ; + X . . . . . X & , - # : = . . . . X & : , , < 3 3 < < < < , < < < 2                 ",
"          , < < , < < < < < 4 2 < , , : : : - = & & & & = ; ; , = $ - $ = = = - : : , < < 3 < < < , < < , < ,                   ",
"          < , , < , , < < < < 3 3 < , , , , > , ; : , ; > , , ; ; # % - > ; > , , , , 2 4 < , < , < < , < , ,                   ",
"            < , , < < < , < < < 4 4 < , , , , , , , , , , , , , , - * ; , , < , , < 4 4 1 , < < < , < < , ,                     ",
"                , , , , < , , , , < 5 2 < , , , , , , , , , , , , , ; , , , , , < 5 3 , < , , , , < : , <                       ",
"                , , < , , < , , < , < 3 4 4 < , , , , , , , , , , , , , , , 3 4 4 < , < , , < , , , , ,                         ",
"                  , , , , , , , , , < , < 3 5 4 2 < < , , , , , , < < 2 4 6 4 < , , , , , , < , , , , ,                         ",
"                    < , , , , < , , , , , , < < 3 4 5 5 5 4 5 5 5 5 5 2 2 , , , < , , , , , , , , , <                           ",
"                        , , , , , , , , , , , : , , , < < < < < , , < , , , , , , , , , , , , : ,                               ",
"                        , : , , , , , , , , , , , , , , < , , , , , , , , , , , , , , , , , , ,                                 ",
"                          , , , , , , , , , , , , , , , , , , , , , , , , , , , , , , ; , , ,                                   ",
"                                , , , , , , , , , , , , , , , , , , , , , , , , , , , ,                                         ",
"                                  , ; , ; , , , , , , ; , , ; , , , , > : , : , ; , :                                           ",
"                                      < < , : , , , , , : , , , > , , , , , , , < <                                             ",
"                                              , ; , , , , : , , , , , , :                                                       ",
"                                                          < ,                                                                   ",
"                                                                                                                                ",
"                                                                                                                                ",
"                                                                                                                                "
};
