/* XPM */
static char *ad69e72f43644e62c5fe0777a5e8e015iaymvpYczsKRISPS[] = {
/* columns rows colors chars-per-pixel */
"16 16 88 1 ",
"  c None",
". c #7E6201",
"X c #7F6301",
"o c #826501",
"O c #836601",
"+ c #856801",
"@ c #876901",
"# c #8B6C01",
"$ c #8E6E01",
"% c #8E6F01",
"& c #8F6F01",
"* c #907001",
"= c #917001",
"- c #927201",
"; c #937201",
": c #947301",
"> c #957401",
", c #967401",
"< c #967501",
"1 c #977501",
"2 c #987601",
"3 c #997601",
"4 c #997701",
"5 c #9A7801",
"6 c #9B7801",
"7 c #9B7901",
"8 c #9C7901",
"9 c #9D7A01",
"0 c #9E7A01",
"q c #9E7B01",
"w c #9F7B01",
"e c #9F7C01",
"r c #A07C01",
"t c #A17D01",
"y c #A27E01",
"u c #A37F01",
"i c #A47F01",
"p c #A48001",
"a c #A58001",
"s c #A78201",
"d c #A88201",
"f c #A98301",
"g c #AA8401",
"h c #AB8501",
"j c #B08901",
"k c #B28B01",
"l c #B38B01",
"z c #B48C01",
"x c #B58D01",
"c c #B68D01",
"v c #B99001",
"b c #BB9101",
"n c #BC9201",
"m c #BD9301",
"M c #BE9401",
"N c #C09501",
"B c #C19601",
"V c #C29701",
"C c #C39701",
"Z c #C39801",
"A c #C49801",
"S c #C69A01",
"D c #C79B01",
"F c #CD9F01",
"G c #CEA001",
"H c #D2A401",
"J c #D3A401",
"K c #D4A501",
"L c #D5A501",
"P c #DAAA01",
"I c #DBAA01",
"U c #DDAC01",
"Y c #D5AA08",
"T c #D6AA08",
"R c #D6AB08",
"E c #DFB109",
"W c #E0AE01",
"Q c #E1AF01",
"! c #E8B501",
"~ c #E1B209",
"^ c #F4C00A",
"/ c #F5C10A",
"( c #FBC508",
") c #FFD232",
"_ c #FFD233",
"` c #FFD43B",
"' c #FFD43E",
"] c #FED43F",
/* pixels */
"                ",
"    )`'''')     ",
"   (/~RRRE/(    ",
"  !UDHPQWHAU!   ",
" KFbGKAAKKGbFK  ",
"CAlbMCMhMMbmlZC ",
"cldlheip1tllhzc ",
"hdpthttdwthdpph ",
"ptwet%6tt:w4wwt ",
"we6;;1eww4#%wwe ",
" 661+11%11%164  ",
" 114;OX+OX%644  ",
"  11611:;161:   ",
"   ;;11611;:    ",
"     ;;;;;:     ",
"                "
};
